0
SECTION
2
HEADER
9
$INSUNITS
70
4
9
$ACADVER
1
AC1014
9
$HANDSEED
5
FFFF
0
ENDSEC
0
SECTION
2
TABLES
0
TABLE
2
VPORT
5
8
100
AcDbSymbolTable
0
ENDTAB
0
TABLE
2
LTYPE
5
5
100
AcDbSymbolTable
0
LTYPE
5
14
100
AcDbSymbolTableRecord
100
AcDbLinetypeTableRecord
2
BYBLOCK
70
0
0
LTYPE
5
15
100
AcDbSymbolTableRecord
100
AcDbLinetypeTableRecord
2
BYLAYER
70
0
0
ENDTAB
0
TABLE
2
LAYER
5
2
100
AcDbSymbolTable
70
2
0
LAYER
5
50
100
AcDbSymbolTableRecord
100
AcDbLayerTableRecord
2
0
70
0
6
CONTINUOUS
0
ENDTAB
0
TABLE
2
STYLE
5
3
100
AcDbSymbolTable
70
1
0
STYLE
5
11
100
AcDbSymbolTableRecord
100
AcDbTextStyleTableRecord
2
STANDARD
70
0
0
ENDTAB
0
TABLE
2
VIEW
5
6
100
AcDbSymbolTable
70
0
0
ENDTAB
0
TABLE
2
UCS
5
7
100
AcDbSymbolTable
70
0
0
ENDTAB
0
TABLE
2
APPID
5
9
100
AcDbSymbolTable
70
2
0
APPID
5
12
100
AcDbSymbolTableRecord
100
AcDbRegAppTableRecord
2
ACAD
70
0
0
ENDTAB
0
TABLE
2
DIMSTYLE
5
A
100
AcDbSymbolTable
70
1
0
ENDTAB
0
TABLE
2
BLOCK_RECORD
5
1
100
AcDbSymbolTable
70
1
0
BLOCK_RECORD
5
1F
100
AcDbSymbolTableRecord
100
AcDbBlockTableRecord
2
*MODEL_SPACE
0
BLOCK_RECORD
5
1B
100
AcDbSymbolTableRecord
100
AcDbBlockTableRecord
2
*PAPER_SPACE
0
ENDTAB
0
ENDSEC
0
SECTION
2
BLOCKS
0
BLOCK
5
20
100
AcDbEntity
100
AcDbBlockBegin
2
*MODEL_SPACE
0
ENDBLK
5
21
100
AcDbEntity
100
AcDbBlockEnd
0
BLOCK
5
1C
100
AcDbEntity
100
AcDbBlockBegin
2
*PAPER_SPACE
0
ENDBLK
5
1D
100
AcDbEntity
100
AcDbBlockEnd
0
ENDSEC
0
SECTION
2
ENTITIES
0
LWPOLYLINE
5
100
100
AcDbEntity
8
0
100
AcDbPolyline
90
60
70
1
43
0.0
10
-50
20
-6.556510889765832e-07
10
-50
20
-2.0000000000000018
10
-41
20
-2.0000000000000018
10
-41
20
-6.556510889765832e-07
10
-33
20
-6.556510889765832e-07
10
-33
20
-2.0000000000000018
10
-23.999999999999993
20
-2.0000000000000018
10
-23.999999999999993
20
-6.556510889765832e-07
10
-15.999999999999996
20
-6.556510889765832e-07
10
-15.999999999999996
20
-2.0000000000000018
10
-6.9999999999999929
20
-2.0000000000000018
10
-6.9999999999999929
20
20.000000298023224
10
0
20
20.000000298023224
10
0
20
-7.9999999105930364
10
-2.0000000298023224
20
-7.9999999105930364
10
-2.0000000298023224
20
-14.000000000000004
10
1.8756883216140239e-31
20
-14.000000000000004
10
0
20
-19.99999991059304
10
-2.0000000298023224
20
-19.99999991059304
10
-2.0000000298023224
20
-26.000000000000007
10
1.8756883216140239e-31
20
-26.000000000000007
10
0
20
-31.99999991059304
10
-2.0000000298023224
20
-31.99999991059304
10
-2.0000000298023224
20
-38.000000000000007
10
1.8756883216140239e-31
20
-38.000000000000007
10
0
20
-46.000000000000007
10
-6.9999999999999929
20
-46.000000000000007
10
-6.9999999999999929
20
-44.000000655651093
10
-15.999999999999996
20
-44.000000655651093
10
-15.999999999999996
20
-46.000000000000007
10
-23.999999999999993
20
-46.000000000000007
10
-23.999999999999993
20
-44.000000655651093
10
-33
20
-44.000000655651093
10
-33
20
-46.000000000000007
10
-41
20
-46.000000000000007
10
-41
20
-44.000000655651093
10
-50
20
-44.000000655651093
10
-50
20
-46.000000000000007
10
-58
20
-46.000000000000007
10
-58
20
-44.000000655651093
10
-67
20
-44.000000655651093
10
-67
20
-46.000000000000007
10
-74
20
-46.000000000000007
10
-74.000000029802322
20
-38.000000000000007
10
-72
20
-38.000000000000007
10
-72
20
-31.99999991059304
10
-74.000000029802322
20
-31.99999991059304
10
-74.000000029802322
20
-26.000000000000007
10
-72
20
-26.000000000000007
10
-72
20
-19.99999991059304
10
-74.000000029802322
20
-19.99999991059304
10
-74.000000029802322
20
-14.000000000000004
10
-72
20
-14.000000000000004
10
-72
20
-7.9999999105930364
10
-74.000000029802322
20
-7.9999999105930364
10
-74.000001102685928
20
20.000000298023224
10
-67
20
20.000000298023224
10
-67
20
-2.0000000000000018
10
-58
20
-2.0000000000000018
10
-58
20
-6.556510889765832e-07
0
LWPOLYLINE
5
101
100
AcDbEntity
8
0
100
AcDbPolyline
90
4
70
1
43
0.0
10
-27
20
-12.999999999999993
10
-47
20
-12.999999999999991
10
-47
20
-14.999999999999993
10
-27
20
-14.999999999999993
0
ENDSEC
0
SECTION
2
OBJECTS
0
DICTIONARY
5
C
100
AcDbDictionary
3
ACAD_GROUP
350
D
3
ACAD_MLINESTYLE
350
17
0
DICTIONARY
5
D
100
AcDbDictionary
0
DICTIONARY
5
1A
330
C
100
AcDbDictionary
0
DICTIONARY
5
17
100
AcDbDictionary
0
ENDSEC
0
EOF
