0
SECTION
2
HEADER
9
$INSUNITS
70
4
9
$ACADVER
1
AC1014
9
$HANDSEED
5
FFFF
0
ENDSEC
0
SECTION
2
TABLES
0
TABLE
2
VPORT
5
8
100
AcDbSymbolTable
0
ENDTAB
0
TABLE
2
LTYPE
5
5
100
AcDbSymbolTable
0
LTYPE
5
14
100
AcDbSymbolTableRecord
100
AcDbLinetypeTableRecord
2
BYBLOCK
70
0
0
LTYPE
5
15
100
AcDbSymbolTableRecord
100
AcDbLinetypeTableRecord
2
BYLAYER
70
0
0
ENDTAB
0
TABLE
2
LAYER
5
2
100
AcDbSymbolTable
70
2
0
LAYER
5
50
100
AcDbSymbolTableRecord
100
AcDbLayerTableRecord
2
0
70
0
6
CONTINUOUS
0
ENDTAB
0
TABLE
2
STYLE
5
3
100
AcDbSymbolTable
70
1
0
STYLE
5
11
100
AcDbSymbolTableRecord
100
AcDbTextStyleTableRecord
2
STANDARD
70
0
0
ENDTAB
0
TABLE
2
VIEW
5
6
100
AcDbSymbolTable
70
0
0
ENDTAB
0
TABLE
2
UCS
5
7
100
AcDbSymbolTable
70
0
0
ENDTAB
0
TABLE
2
APPID
5
9
100
AcDbSymbolTable
70
2
0
APPID
5
12
100
AcDbSymbolTableRecord
100
AcDbRegAppTableRecord
2
ACAD
70
0
0
ENDTAB
0
TABLE
2
DIMSTYLE
5
A
100
AcDbSymbolTable
70
1
0
ENDTAB
0
TABLE
2
BLOCK_RECORD
5
1
100
AcDbSymbolTable
70
1
0
BLOCK_RECORD
5
1F
100
AcDbSymbolTableRecord
100
AcDbBlockTableRecord
2
*MODEL_SPACE
0
BLOCK_RECORD
5
1B
100
AcDbSymbolTableRecord
100
AcDbBlockTableRecord
2
*PAPER_SPACE
0
ENDTAB
0
ENDSEC
0
SECTION
2
BLOCKS
0
BLOCK
5
20
100
AcDbEntity
100
AcDbBlockBegin
2
*MODEL_SPACE
0
ENDBLK
5
21
100
AcDbEntity
100
AcDbBlockEnd
0
BLOCK
5
1C
100
AcDbEntity
100
AcDbBlockBegin
2
*PAPER_SPACE
0
ENDBLK
5
1D
100
AcDbEntity
100
AcDbBlockEnd
0
ENDSEC
0
SECTION
2
ENTITIES
0
LWPOLYLINE
5
100
100
AcDbEntity
8
0
100
AcDbPolyline
90
4
70
1
43
0.0
10
-33.000000491738319
20
-5.4500713064281481
10
-33.000000491738319
20
-40.549929379025265
42
0.028944032916948519
10
-31.000000461935997
20
-39.970563344084937
10
-31.000000461936001
20
-6.0294373413684728
42
0.028944032916946839
0
LWPOLYLINE
5
101
100
AcDbEntity
8
0
100
AcDbPolyline
90
4
70
1
43
0.0
10
-51.000000759959221
20
-34.313709010298865
10
-51.000000759959221
20
-11.686291675154548
42
0.05099201973525945
10
-53.000000789761543
20
-14.753788968613275
10
-53.000000789761543
20
-31.246211716840151
42
0.05099201973526097
0
LWPOLYLINE
5
102
100
AcDbEntity
8
0
100
AcDbPolyline
90
4
70
1
43
0.0
10
-36.000000536441803
20
-40.972201366144802
10
-36.000000536441803
20
-5.0277993193086168
42
0.02779924438857035
10
-38.000000566244125
20
-5.0277993193086168
10
-38.000000566244111
20
-40.972201366144802
42
0.027799244388571853
0
LWPOLYLINE
5
103
100
AcDbEntity
8
0
100
AcDbPolyline
90
4
70
1
43
0.0
10
-28.000000417232513
20
-7.4115428423206975
10
-28.000000417232513
20
-38.588457843132716
42
0.033478694688065115
10
-26.000000387430191
20
-37.247807403810583
10
-26.000000387430198
20
-8.7521932816428301
42
0.033478694688063235
0
LWPOLYLINE
5
104
100
AcDbEntity
8
0
100
AcDbPolyline
90
4
70
1
43
0.0
10
-46.000000685453415
20
-38.588457843132716
10
-46.000000685453415
20
-7.4115428423206957
42
0.033478694688063859
10
-48.000000715255737
20
-8.7521932816428318
10
-48.000000715255737
20
-37.247807403810583
42
0.033478694688065733
0
LWPOLYLINE
5
105
100
AcDbEntity
8
0
100
AcDbPolyline
90
4
70
1
43
0.0
10
-41.000000610947609
20
-40.549929379025265
10
-41.000000610947609
20
-5.4500713064281436
42
0.028944032916947079
10
-43.000000640749931
20
-6.0294373413684754
10
-43.000000640749931
20
-39.970563344084944
42
0.028944032916948761
0
LWPOLYLINE
5
106
100
AcDbEntity
8
0
100
AcDbPolyline
90
4
70
1
43
0.0
10
-23.000000342726707
20
-11.686291675154553
10
-23.000000342726707
20
-34.313709010298858
42
0.050992019735260137
10
-21.000000312924385
20
-31.246211716840158
10
-21.000000312924385
20
-14.753788968613248
42
0.050992019735258215
0
LWPOLYLINE
5
107
100
AcDbEntity
8
0
100
AcDbPolyline
90
60
70
1
43
0.0
10
-50
20
-6.556510889765832e-07
10
-50
20
-2.0000000000000018
10
-40.999999999999986
20
-2.0000000000000018
10
-40.999999999999986
20
-6.556510889765832e-07
10
-33
20
-6.556510889765832e-07
10
-33
20
-2.0000000000000018
10
-23.999999999999986
20
-2.0000000000000018
10
-23.999999999999986
20
-6.556510889765832e-07
10
-15.999999999999996
20
-6.556510889765832e-07
10
-15.999999999999996
20
-2.0000000000000018
10
-6.999999999999984
20
-2.0000000000000018
10
-6.999999999999984
20
-6.556510889765832e-07
10
0
20
0
10
0
20
-7.9999999105930364
10
-2.0000000298023224
20
-7.9999999105930364
10
-2.0000000298023224
20
-14.000000000000004
10
1.1455096364877126e-31
20
-14.000000000000004
10
0
20
-19.99999991059304
10
-2.0000000298023224
20
-19.99999991059304
10
-2.0000000298023224
20
-26.000000000000007
10
1.1455096364877126e-31
20
-26.000000000000007
10
0
20
-31.99999991059304
10
-2.0000000298023224
20
-31.99999991059304
10
-2.0000000298023224
20
-38.000000000000007
10
1.1455096364877126e-31
20
-38.000000000000007
10
0
20
-46.000000000000007
10
-6.999999999999984
20
-46.000000000000007
10
-6.999999999999984
20
-44.000000655651093
10
-15.999999999999996
20
-44.000000655651093
10
-15.999999999999996
20
-46.000000000000007
10
-23.999999999999986
20
-46.000000000000007
10
-23.999999999999986
20
-44.000000655651093
10
-33
20
-44.000000655651093
10
-33
20
-46.000000000000007
10
-40.999999999999986
20
-46.000000000000007
10
-40.999999999999986
20
-44.000000655651093
10
-50
20
-44.000000655651093
10
-50
20
-46.000000000000007
10
-57.999999999999986
20
-46.000000000000007
10
-57.999999999999986
20
-44.000000655651093
10
-67
20
-44.000000655651093
10
-67
20
-46.000000000000007
10
-74
20
-46.000000000000007
10
-74.000000029802322
20
-38.000000000000007
10
-72
20
-38.000000000000007
10
-72
20
-31.99999991059304
10
-74.000000029802322
20
-31.99999991059304
10
-74.000000029802322
20
-26.000000000000007
10
-72
20
-26.000000000000007
10
-72
20
-19.99999991059304
10
-74.000000029802322
20
-19.99999991059304
10
-74.000000029802322
20
-14.000000000000004
10
-72
20
-14.000000000000004
10
-72
20
-7.9999999105930364
10
-74.000000029802322
20
-7.9999999105930364
10
-74
20
0
10
-67
20
-6.556510889765832e-07
10
-67
20
-2.0000000000000018
10
-57.999999999999986
20
-2.0000000000000018
10
-57.999999999999986
20
-6.556510889765832e-07
0
CIRCLE
5
108
100
AcDbEntity
8
0
100
AcDbCircle
10
-53.000000000000007
20
-7.0000000000000018
30
0
40
1.6000000000000003
210
0
220
-0
230
1
0
CIRCLE
5
109
100
AcDbEntity
8
0
100
AcDbCircle
10
-21.000000000000007
20
-39
30
0
40
1.6000000000000003
210
0
220
-0
230
1
0
CIRCLE
5
110
100
AcDbEntity
8
0
100
AcDbCircle
10
-53.000000000000007
20
-39
30
0
40
1.6000000000000003
210
0
220
-0
230
1
0
CIRCLE
5
111
100
AcDbEntity
8
0
100
AcDbCircle
10
-21.000000000000007
20
-7.0000000000000018
30
0
40
1.6000000000000003
210
0
220
-0
230
1
0
ENDSEC
0
SECTION
2
OBJECTS
0
DICTIONARY
5
C
100
AcDbDictionary
3
ACAD_GROUP
350
D
3
ACAD_MLINESTYLE
350
17
0
DICTIONARY
5
D
100
AcDbDictionary
0
DICTIONARY
5
1A
330
C
100
AcDbDictionary
0
DICTIONARY
5
17
100
AcDbDictionary
0
ENDSEC
0
EOF
