0
SECTION
2
HEADER
9
$INSUNITS
70
4
9
$ACADVER
1
AC1014
9
$HANDSEED
5
FFFF
0
ENDSEC
0
SECTION
2
TABLES
0
TABLE
2
VPORT
5
8
100
AcDbSymbolTable
0
ENDTAB
0
TABLE
2
LTYPE
5
5
100
AcDbSymbolTable
0
LTYPE
5
14
100
AcDbSymbolTableRecord
100
AcDbLinetypeTableRecord
2
BYBLOCK
70
0
0
LTYPE
5
15
100
AcDbSymbolTableRecord
100
AcDbLinetypeTableRecord
2
BYLAYER
70
0
0
ENDTAB
0
TABLE
2
LAYER
5
2
100
AcDbSymbolTable
70
2
0
LAYER
5
50
100
AcDbSymbolTableRecord
100
AcDbLayerTableRecord
2
0
70
0
6
CONTINUOUS
0
ENDTAB
0
TABLE
2
STYLE
5
3
100
AcDbSymbolTable
70
1
0
STYLE
5
11
100
AcDbSymbolTableRecord
100
AcDbTextStyleTableRecord
2
STANDARD
70
0
0
ENDTAB
0
TABLE
2
VIEW
5
6
100
AcDbSymbolTable
70
0
0
ENDTAB
0
TABLE
2
UCS
5
7
100
AcDbSymbolTable
70
0
0
ENDTAB
0
TABLE
2
APPID
5
9
100
AcDbSymbolTable
70
2
0
APPID
5
12
100
AcDbSymbolTableRecord
100
AcDbRegAppTableRecord
2
ACAD
70
0
0
ENDTAB
0
TABLE
2
DIMSTYLE
5
A
100
AcDbSymbolTable
70
1
0
ENDTAB
0
TABLE
2
BLOCK_RECORD
5
1
100
AcDbSymbolTable
70
1
0
BLOCK_RECORD
5
1F
100
AcDbSymbolTableRecord
100
AcDbBlockTableRecord
2
*MODEL_SPACE
0
BLOCK_RECORD
5
1B
100
AcDbSymbolTableRecord
100
AcDbBlockTableRecord
2
*PAPER_SPACE
0
ENDTAB
0
ENDSEC
0
SECTION
2
BLOCKS
0
BLOCK
5
20
100
AcDbEntity
100
AcDbBlockBegin
2
*MODEL_SPACE
0
ENDBLK
5
21
100
AcDbEntity
100
AcDbBlockEnd
0
BLOCK
5
1C
100
AcDbEntity
100
AcDbBlockBegin
2
*PAPER_SPACE
0
ENDBLK
5
1D
100
AcDbEntity
100
AcDbBlockEnd
0
ENDSEC
0
SECTION
2
ENTITIES
0
LWPOLYLINE
5
100
100
AcDbEntity
8
0
100
AcDbPolyline
90
4
70
1
43
0.0
10
31.000000461935997
20
25.00000037252903
10
31.000000461935997
20
15.000000223517418
10
33.000000491738319
20
15.000000223517418
10
33.000000491738319
20
25.00000037252903
0
LWPOLYLINE
5
101
100
AcDbEntity
8
0
100
AcDbPolyline
90
4
70
1
43
0.0
10
36.000000536441803
20
15.000000223517418
10
38.000000566244125
20
15.000000223517418
10
38.000000566244125
20
25.00000037252903
10
36.000000536441803
20
25.00000037252903
0
LWPOLYLINE
5
102
100
AcDbEntity
8
0
100
AcDbPolyline
90
4
70
1
43
0.0
10
26.000000387430191
20
25.00000037252903
10
26.000000387430191
20
15.000000223517418
10
28.000000417232513
20
15.000000223517418
10
28.000000417232513
20
25.00000037252903
0
LWPOLYLINE
5
103
100
AcDbEntity
8
0
100
AcDbPolyline
90
4
70
1
43
0.0
10
21.000000312924385
20
25.00000037252903
10
21.000000312924385
20
15.000000223517418
10
23.000000342726707
20
15.000000223517418
10
23.000000342726707
20
25.00000037252903
0
LWPOLYLINE
5
104
100
AcDbEntity
8
0
100
AcDbPolyline
90
4
70
1
43
0.0
10
46.000000685453415
20
15.000000223517418
10
48.000000715255737
20
15.000000223517418
10
48.000000715255737
20
25.00000037252903
10
46.000000685453415
20
25.00000037252903
0
LWPOLYLINE
5
105
100
AcDbEntity
8
0
100
AcDbPolyline
90
4
70
1
43
0.0
10
41.000000610947609
20
15.000000223517418
10
43.000000640749931
20
15.000000223517418
10
43.000000640749931
20
25.00000037252903
10
41.000000610947609
20
25.00000037252903
0
LWPOLYLINE
5
106
100
AcDbEntity
8
0
100
AcDbPolyline
90
4
70
1
43
0.0
10
51.000000759959221
20
15.000000223517418
10
53.000000789761543
20
15.000000223517418
10
53.000000789761543
20
25.00000037252903
10
51.000000759959221
20
25.00000037252903
0
LWPOLYLINE
5
107
100
AcDbEntity
8
0
100
AcDbPolyline
90
60
70
1
43
0.0
10
0
20
31.000000461935997
10
2.0000000298023224
20
31.000000461935997
10
2.0000000298023224
20
37.000000551342964
10
0
20
37.000000551342964
10
0
20
42.00000062584877
10
7.0000001043081284
20
42.00000062584877
10
7.0000001043081284
20
44
10
16.000000238418579
20
44.000000655651093
10
16.000000238418579
20
42.00000062584877
10
24.000000357627869
20
42.00000062584877
10
24.000000357627869
20
44.000000655651093
10
33.000000238418579
20
44.000000655651093
10
33.000000238418579
20
42.00000062584877
10
41.000000357627869
20
42.00000062584877
10
41.000000357627869
20
44.000000655651093
10
50.000000238418579
20
44.000000655651093
10
50.000000238418579
20
42.00000062584877
10
58.000000357627869
20
42.00000062584877
10
58.000000357627869
20
44.000000655651093
10
67.0000009983778
20
44
10
67.0000009983778
20
42.00000062584877
10
74
20
42.00000062584877
10
74.000000029802322
20
37.000000551342964
10
72
20
37.000000551342964
10
72
20
31.000000461935997
10
74.000000029802322
20
31.000000461935997
10
74.000000029802322
20
25.000000551342964
10
72
20
25.000000551342964
10
72
20
19.000000461935997
10
74.000000029802322
20
19.000000461935997
10
74.000000029802322
20
13.000000551342961
10
72
20
13.000000551342961
10
72
20
7.0000004619359935
10
74.000000029802322
20
7.0000004619359935
10
74
20
2.0000000000000018
10
67.0000009983778
20
2.0000000000000018
10
67.0000009983778
20
6.2584876836524472e-07
10
58.000000357627869
20
6.2584876836524472e-07
10
58.000000357627869
20
2.0000006556510908
10
50.000000238418579
20
2.0000006556510908
10
50.000000238418579
20
6.2584876836524472e-07
10
41.000000357627869
20
6.2584876836524472e-07
10
41.000000357627869
20
2.0000006556510908
10
33.000000238418579
20
2.0000006556510908
10
33.000000238418579
20
6.2584876836524472e-07
10
24.000000357627869
20
6.2584876836524472e-07
10
24.000000357627869
20
2.0000006556510908
10
16.000000238418579
20
2.0000006556510908
10
16.000000238418579
20
6.2584876836524472e-07
10
7.0000001043081284
20
6.2584876836524472e-07
10
7.0000001043081284
20
2.0000000000000018
10
0
20
2.0000000000000018
10
0
20
7.0000004619359935
10
2.0000000298023224
20
7.0000004619359935
10
2.0000000298023224
20
13.000000551342961
10
0
20
13.000000551342961
10
0
20
19.000000461935997
10
2.0000000298023224
20
19.000000461935997
10
2.0000000298023224
20
25.000000551342964
10
0
20
25.000000551342964
0
ENDSEC
0
SECTION
2
OBJECTS
0
DICTIONARY
5
C
100
AcDbDictionary
3
ACAD_GROUP
350
D
3
ACAD_MLINESTYLE
350
17
0
DICTIONARY
5
D
100
AcDbDictionary
0
DICTIONARY
5
1A
330
C
100
AcDbDictionary
0
DICTIONARY
5
17
100
AcDbDictionary
0
ENDSEC
0
EOF
