0
SECTION
2
HEADER
9
$INSUNITS
70
4
9
$ACADVER
1
AC1014
9
$HANDSEED
5
FFFF
0
ENDSEC
0
SECTION
2
TABLES
0
TABLE
2
VPORT
5
8
100
AcDbSymbolTable
0
ENDTAB
0
TABLE
2
LTYPE
5
5
100
AcDbSymbolTable
0
LTYPE
5
14
100
AcDbSymbolTableRecord
100
AcDbLinetypeTableRecord
2
BYBLOCK
70
0
0
LTYPE
5
15
100
AcDbSymbolTableRecord
100
AcDbLinetypeTableRecord
2
BYLAYER
70
0
0
ENDTAB
0
TABLE
2
LAYER
5
2
100
AcDbSymbolTable
70
2
0
LAYER
5
50
100
AcDbSymbolTableRecord
100
AcDbLayerTableRecord
2
0
70
0
6
CONTINUOUS
0
ENDTAB
0
TABLE
2
STYLE
5
3
100
AcDbSymbolTable
70
1
0
STYLE
5
11
100
AcDbSymbolTableRecord
100
AcDbTextStyleTableRecord
2
STANDARD
70
0
0
ENDTAB
0
TABLE
2
VIEW
5
6
100
AcDbSymbolTable
70
0
0
ENDTAB
0
TABLE
2
UCS
5
7
100
AcDbSymbolTable
70
0
0
ENDTAB
0
TABLE
2
APPID
5
9
100
AcDbSymbolTable
70
2
0
APPID
5
12
100
AcDbSymbolTableRecord
100
AcDbRegAppTableRecord
2
ACAD
70
0
0
ENDTAB
0
TABLE
2
DIMSTYLE
5
A
100
AcDbSymbolTable
70
1
0
ENDTAB
0
TABLE
2
BLOCK_RECORD
5
1
100
AcDbSymbolTable
70
1
0
BLOCK_RECORD
5
1F
100
AcDbSymbolTableRecord
100
AcDbBlockTableRecord
2
*MODEL_SPACE
0
BLOCK_RECORD
5
1B
100
AcDbSymbolTableRecord
100
AcDbBlockTableRecord
2
*PAPER_SPACE
0
ENDTAB
0
ENDSEC
0
SECTION
2
BLOCKS
0
BLOCK
5
20
100
AcDbEntity
100
AcDbBlockBegin
2
*MODEL_SPACE
0
ENDBLK
5
21
100
AcDbEntity
100
AcDbBlockEnd
0
BLOCK
5
1C
100
AcDbEntity
100
AcDbBlockBegin
2
*PAPER_SPACE
0
ENDBLK
5
1D
100
AcDbEntity
100
AcDbBlockEnd
0
ENDSEC
0
SECTION
2
ENTITIES
0
LWPOLYLINE
5
100
100
AcDbEntity
8
0
100
AcDbPolyline
90
4
70
1
43
0.0
10
33.000000491738319
20
-40.549929379025265
10
33.000000491738319
20
-5.4500713064281481
42
0.02894403291695237
10
31.000000461935997
20
-6.0294373413684754
10
31.000000461936001
20
-39.970563344084944
42
0.028944032916942506
0
LWPOLYLINE
5
101
100
AcDbEntity
8
0
100
AcDbPolyline
90
4
70
1
43
0.0
10
51.000000759959221
20
-11.68629167515455
10
51.000000759959221
20
-34.313709010298865
42
0.05099201973525698
10
53.000000789761543
20
-31.246211716840151
10
53.00000078976155
20
-14.753788968613266
42
0.05099201973526702
0
LWPOLYLINE
5
102
100
AcDbEntity
8
0
100
AcDbPolyline
90
4
70
1
43
0.0
10
36.000000536441803
20
-5.0277993193086168
10
36.000000536441803
20
-40.972201366144802
42
0.0277992443885666
10
38.000000566244125
20
-40.972201366144802
10
38.000000566244111
20
-5.027799319308615
42
0.027799244388576363
0
LWPOLYLINE
5
103
100
AcDbEntity
8
0
100
AcDbPolyline
90
4
70
1
43
0.0
10
28.000000417232513
20
-38.588457843132716
10
28.000000417232513
20
-7.4115428423206993
42
0.033478694688068439
10
26.000000387430191
20
-8.7521932816428283
10
26.000000387430198
20
-37.247807403810583
42
0.033478694688058447
0
LWPOLYLINE
5
104
100
AcDbEntity
8
0
100
AcDbPolyline
90
4
70
1
43
0.0
10
46.000000685453415
20
-7.4115428423206975
10
46.000000685453415
20
-38.588457843132716
42
0.033478694688060737
10
48.000000715255737
20
-37.247807403810583
10
48.000000715255737
20
-8.7521932816428247
42
0.033478694688070527
0
LWPOLYLINE
5
105
100
AcDbEntity
8
0
100
AcDbPolyline
90
4
70
1
43
0.0
10
41.000000610947609
20
-5.4500713064281436
10
41.000000610947609
20
-40.549929379025265
42
0.028944032916943467
10
43.000000640749931
20
-39.970563344084937
10
43.000000640749931
20
-6.029437341368471
42
0.02894403291695357
0
LWPOLYLINE
5
106
100
AcDbEntity
8
0
100
AcDbPolyline
90
4
70
1
43
0.0
10
23.000000342726707
20
-34.313709010298858
10
23.000000342726707
20
-11.686291675154552
42
0.050992019735262351
10
21.000000312924385
20
-14.753788968613257
10
21.000000312924392
20
-31.246211716840165
42
0.050992019735252442
0
LWPOLYLINE
5
107
100
AcDbEntity
8
0
100
AcDbPolyline
90
60
70
1
43
0.0
10
50
20
-2.0000000000000018
10
50
20
1.0000000149011612
10
58.000000864267349
20
1.0000000149011612
10
57.999999999999986
20
-2.0000000000000018
10
67
20
-2.0000000000000018
10
67
20
1.0000000149011612
10
75.00000111758709
20
1.0000000149011612
10
75.00000111758709
20
-8.0000001192092896
10
72
20
-7.9999999105930364
10
72
20
-14.000000000000004
10
75.00000111758709
20
-14.000000000000004
10
75.00000111758709
20
-20.000000298023224
10
72
20
-19.99999991059304
10
72
20
-26.000000000000007
10
75.00000111758709
20
-26.000000000000007
10
75.00000111758709
20
-32.000000476837158
10
72
20
-31.99999991059304
10
72
20
-38.000000000000007
10
75.00000111758709
20
-38.000000000000007
10
75.00000111758709
20
-47.000000700354576
10
67
20
-47.000000700354576
10
67
20
-44.000000655651093
10
57.999999999999986
20
-44.000000655651093
10
57.999999999999986
20
-47.000000700354576
10
50.00000074505806
20
-47.000000700354576
10
50
20
-44.000000655651093
10
40.999999999999986
20
-44.000000655651093
10
40.999999999999986
20
-47.000000700354576
10
33.000000491738319
20
-47.000000700354576
10
33
20
-44.000000655651093
10
23.999999999999986
20
-44.000000655651093
10
23.999999999999986
20
-47.000000700354576
10
16.000000238418579
20
-47.000000700354576
10
15.999999999999996
20
-44.000000655651093
10
6.999999999999984
20
-44.000000655651093
10
6.999999999999984
20
-47.000000700354576
10
-1.0000000149011612
20
-47.000000700354576
10
-1.0000000149011612
20
-38.000000000000007
10
2.0000000298023224
20
-38.000000000000007
10
2.0000000298023224
20
-31.99999991059304
10
-1.0000000149011612
20
-32.000000476837158
10
-1.0000000149011612
20
-26.000000000000007
10
2.0000000298023224
20
-26.000000000000007
10
2.0000000298023224
20
-19.99999991059304
10
-1.0000000149011612
20
-20.000000298023224
10
-1.0000000149011612
20
-14.000000000000004
10
2.0000000298023224
20
-14.000000000000004
10
2.0000000298023224
20
-7.9999999105930364
10
-1.0000000149011612
20
-8.0000001192092896
10
-1.0000000149011612
20
1.0000000149011612
10
7.0000001043081284
20
1.0000000149011612
10
6.999999999999984
20
-2.0000000000000018
10
15.999999999999996
20
-2.0000000000000018
10
15.999999999999996
20
1.0000000149011612
10
24.000000357627869
20
1.0000000149011612
10
23.999999999999986
20
-2.0000000000000018
10
33
20
-2.0000000000000018
10
33
20
1.0000000149011612
10
41.000000610947609
20
1.0000000149011612
10
40.999999999999986
20
-2.0000000000000018
0
CIRCLE
5
108
100
AcDbEntity
8
0
100
AcDbCircle
10
21.000000000000007
20
-7.0000000000000018
30
0
40
1.6000000000000003
210
0
220
0
230
1
0
CIRCLE
5
109
100
AcDbEntity
8
0
100
AcDbCircle
10
53.000000000000007
20
-39
30
0
40
1.6000000000000003
210
0
220
0
230
1
0
CIRCLE
5
110
100
AcDbEntity
8
0
100
AcDbCircle
10
21.000000000000007
20
-39
30
0
40
1.6000000000000003
210
0
220
0
230
1
0
CIRCLE
5
111
100
AcDbEntity
8
0
100
AcDbCircle
10
53.000000000000007
20
-7.0000000000000018
30
0
40
1.6000000000000003
210
0
220
0
230
1
0
ENDSEC
0
SECTION
2
OBJECTS
0
DICTIONARY
5
C
100
AcDbDictionary
3
ACAD_GROUP
350
D
3
ACAD_MLINESTYLE
350
17
0
DICTIONARY
5
D
100
AcDbDictionary
0
DICTIONARY
5
1A
330
C
100
AcDbDictionary
0
DICTIONARY
5
17
100
AcDbDictionary
0
ENDSEC
0
EOF
